<svg xmlns="http://www.w3.org/2000/svg" width="34.048" height="34.048" viewBox="0 0 34.048 34.048">
  <path id="instagram-icon" d="M9.928,0A9.943,9.943,0,0,0,0,9.932V24.118a9.943,9.943,0,0,0,9.932,9.93H24.118a9.943,9.943,0,0,0,9.93-9.932V9.928A9.943,9.943,0,0,0,24.115,0Zm17.31,5.448A1.362,1.362,0,1,1,25.876,6.81,1.362,1.362,0,0,1,27.238,5.448ZM17.024,8.171a8.852,8.852,0,1,1-8.852,8.852A8.861,8.861,0,0,1,17.024,8.171Zm0,2.724a6.129,6.129,0,1,0,6.129,6.129A6.128,6.128,0,0,0,17.024,10.9Z" fill="#c5a26a"/>
</svg>
