<svg xmlns="http://www.w3.org/2000/svg" width="34.048" height="34.048" viewBox="0 0 34.048 34.048">
  <path id="linkedin-icon" d="M29.995,0H4.053A4.055,4.055,0,0,0,0,4.053V29.994a4.055,4.055,0,0,0,4.053,4.053H29.995a4.055,4.055,0,0,0,4.053-4.053V4.053A4.055,4.055,0,0,0,29.995,0ZM10.539,12.971v15.4H5.675v-15.4ZM5.675,8.488a2.161,2.161,0,0,1,2.432-2,2.193,2.193,0,0,1,2.432,2,2.158,2.158,0,0,1-2.432,2.051A2.194,2.194,0,0,1,5.675,8.488Zm22.7,19.886H23.509V20.267c0-1.621-.811-3.243-2.837-3.275h-.065c-1.962,0-2.773,1.67-2.773,3.275v8.107H12.971v-15.4h4.864v2.075a6.072,6.072,0,0,1,4.71-2.075c3.218,0,5.829,2.213,5.829,6.7Z" fill="#c5a26a"/>
</svg>
