<svg xmlns="http://www.w3.org/2000/svg" width="34.048" height="34.048" viewBox="0 0 34.048 34.048">
  <path id="twitter-icon" d="M30.643,0H3.4A3.415,3.415,0,0,0,0,3.4V30.643a3.415,3.415,0,0,0,3.4,3.4H30.643a3.415,3.415,0,0,0,3.4-3.4V3.4A3.415,3.415,0,0,0,30.643,0ZM26.728,12.427c-.17,7.831-5.107,13.279-12.6,13.619A12.391,12.391,0,0,1,6.81,24a9.038,9.038,0,0,0,6.639-1.873A4.6,4.6,0,0,1,9.193,18.9a6.867,6.867,0,0,0,1.873,0,4.637,4.637,0,0,1-3.575-4.6,3.432,3.432,0,0,0,1.873.511C7.831,13.96,6.81,10.725,8,8.682a13.49,13.49,0,0,0,9.363,4.767c-1.192-4.767,5.277-7.32,7.831-4.086A11.469,11.469,0,0,0,28.09,8.342,4.813,4.813,0,0,1,26.217,10.9a9.759,9.759,0,0,0,2.383-.681C28.43,11.066,27.579,11.747,26.728,12.427Z" fill="#c5a26a"/>
</svg>
