<svg xmlns="http://www.w3.org/2000/svg" width="45.86" height="34.048" viewBox="0 0 45.86 34.048">
  <path id="youtube-icon" d="M44.58,5.852a6.044,6.044,0,0,0-4.788-4.576A94.669,94.669,0,0,0,22.768,0,96.064,96.064,0,0,0,5.64,1.276,5.905,5.905,0,0,0,.852,5.852,69.81,69.81,0,0,0,0,17.024,57.907,57.907,0,0,0,.956,28.2a6.056,6.056,0,0,0,4.788,4.576,97.879,97.879,0,0,0,17.132,1.276,97.879,97.879,0,0,0,17.132-1.276A5.91,5.91,0,0,0,44.8,28.2,81.631,81.631,0,0,0,45.86,17.024,74.461,74.461,0,0,0,44.58,5.852ZM17.024,24.472V9.576L30,17.024Z" fill="#c5a26a"/>
</svg>
